<?xml version="1.0" encoding="UTF-8" standalone="no"?>
<!-- Created with Inkscape (http://www.inkscape.org/) -->

<svg
   xmlns:dc="http://purl.org/dc/elements/1.1/"
   xmlns:cc="http://creativecommons.org/ns#"
   xmlns:rdf="http://www.w3.org/1999/02/22-rdf-syntax-ns#"
   xmlns:svg="http://www.w3.org/2000/svg"
   xmlns="http://www.w3.org/2000/svg"
   xmlns:sodipodi="http://sodipodi.sourceforge.net/DTD/sodipodi-0.dtd"
   xmlns:inkscape="http://www.inkscape.org/namespaces/inkscape"
   width="50"
   height="50"
   id="svg2"
   version="1.1"
   inkscape:version="0.48.3.1 r9886"
   sodipodi:docname="reload.svg">
  <defs
     id="defs4" />
  <sodipodi:namedview
     id="base"
     pagecolor="#ffffff"
     bordercolor="#666666"
     borderopacity="1.0"
     inkscape:pageopacity="0.0"
     inkscape:pageshadow="2"
     inkscape:zoom="5.773022"
     inkscape:cx="26.616981"
     inkscape:cy="10.943004"
     inkscape:document-units="px"
     inkscape:current-layer="layer1"
     showgrid="false"
     fit-margin-top="0"
     fit-margin-left="0"
     fit-margin-right="0"
     fit-margin-bottom="0"
     inkscape:window-width="1855"
     inkscape:window-height="1176"
     inkscape:window-x="65"
     inkscape:window-y="24"
     inkscape:window-maximized="1" />
  <metadata
     id="metadata7">
    <rdf:RDF>
      <cc:Work
         rdf:about="">
        <dc:format>image/svg+xml</dc:format>
        <dc:type
           rdf:resource="http://purl.org/dc/dcmitype/StillImage" />
        <dc:title></dc:title>
      </cc:Work>
    </rdf:RDF>
  </metadata>
  <g
     inkscape:label="Layer 1"
     inkscape:groupmode="layer"
     id="layer1"
     transform="translate(-50.881748,-34.611781)">
    <g
       id="g3071"
       transform="matrix(1.6361772,0,0,1.6361772,-29.810772,-56.871955)">
      <path
         sodipodi:nodetypes="sscscccs"
         inkscape:connector-curvature="0"
         id="path3060"
         d="m 62.633539,60.86163 c -5.576621,-0.450573 -10.458381,3.701298 -10.908955,9.277919 -0.422413,5.228084 3.209646,9.869659 8.259526,10.798136 -2.949103,-1.675742 -4.822208,-4.952468 -4.531027,-8.556338 0.40051,-4.956998 4.756876,-8.66203 9.713874,-8.261519 0.106438,0.602607 0.02316,0.891056 -0.199978,1.846106 2.240793,0.06545 3.435442,0.315554 6.229035,1.23793 -1.385155,-3.454858 -4.60046,-6.022116 -8.562475,-6.342234 z"
         style="fill:#2a7fff;stroke:none" />
      <path
         sodipodi:nodetypes="sscscccs"
         inkscape:connector-curvature="0"
         style="fill:#2a7fff;stroke:none"
         d="m 69.254507,81.950514 c 5.937121,-1.590847 9.45741,-7.688166 7.866563,-13.625287 -1.491419,-5.566051 -6.962215,-9.029537 -12.530532,-8.127549 3.670002,0.646252 6.817093,3.346184 7.845172,7.183026 1.414086,5.277441 -1.727336,10.718543 -7.004777,12.132629 -0.443999,-0.562108 -0.448725,-0.895328 -0.497354,-1.594776 -1.800279,0.530088 -5.352687,1.485627 -6.879402,0.627305 2.707851,3.064266 6.982194,4.534898 11.20033,3.404652 z"
         id="path3069" />
    </g>
  </g>
</svg>
